<svg width="60" height="60" viewBox="0 0 60 60" fill="none" xmlns="http://www.w3.org/2000/svg">
<path d="M17.5 22.5H42.5V17.5H17.5V22.5ZM12.5 52.5C11.125 52.5 9.94833 52.0108 8.97 51.0325C7.99167 50.0542 7.50167 48.8767 7.5 47.5V12.5C7.5 11.125 7.99 9.94833 8.97 8.97C9.95 7.99167 11.1267 7.50167 12.5 7.5H47.5C48.875 7.5 50.0525 7.99 51.0325 8.97C52.0125 9.95 52.5017 11.1267 52.5 12.5V28.625C51.5417 26.75 50.1667 25.2608 48.375 24.1575C46.5833 23.0542 44.625 22.5017 42.5 22.5C40.625 22.5 38.875 22.9375 37.25 23.8125C35.625 24.6875 34.2708 25.9167 33.1875 27.5H17.5V32.5H31.3125C31.2292 33.3333 31.2292 34.1667 31.3125 35C31.3958 35.8333 31.5833 36.6667 31.875 37.5H17.5V42.5H27.3125C26.5208 43.4167 25.9375 44.4275 25.5625 45.5325C25.1875 46.6375 25 47.7933 25 49V52.5H12.5ZM30 52.5V49C30 48 30.2608 47.0733 30.7825 46.22C31.3042 45.3667 32.0433 44.7517 33 44.375C34.5 43.75 36.0525 43.2817 37.6575 42.97C39.2625 42.6583 40.8767 42.5017 42.5 42.5C44.1233 42.4983 45.7383 42.655 47.345 42.97C48.9517 43.285 50.5033 43.7533 52 44.375C52.9583 44.75 53.6983 45.365 54.22 46.22C54.7417 47.075 55.0017 48.0017 55 49V52.5H30ZM38.0625 38.1875C36.8542 36.9792 36.25 35.5 36.25 33.75C36.25 32 36.8542 30.5208 38.0625 29.3125C39.2708 28.1042 40.75 27.5 42.5 27.5C44.25 27.5 45.7292 28.1042 46.9375 29.3125C48.1458 30.5208 48.75 32 48.75 33.75C48.75 35.5 48.1458 36.9792 46.9375 38.1875C45.7292 39.3958 44.25 40 42.5 40C40.75 40 39.2708 39.3958 38.0625 38.1875Z" fill="black"/>
</svg>
