<svg width="60" height="60" viewBox="0 0 60 60" fill="none" xmlns="http://www.w3.org/2000/svg">
<path d="M30 29.75L34.6875 34.5C35.1875 35 35.7817 35.25 36.47 35.25C37.1583 35.25 37.7517 35 38.25 34.5C38.7483 34 38.9983 33.4067 39 32.72C39.0017 32.0333 38.7517 31.4392 38.25 30.9375L33.5 26.25L38.25 21.5625C38.75 21.0625 39 20.4692 39 19.7825C39 19.0958 38.75 18.5017 38.25 18C37.75 17.4983 37.1567 17.2483 36.47 17.25C35.7833 17.2517 35.1892 17.5017 34.6875 18L30 22.75L25.3125 18C24.8125 17.5 24.2192 17.25 23.5325 17.25C22.8458 17.25 22.2517 17.5 21.75 18C21.2483 18.5 20.9983 19.0942 21 19.7825C21.0017 20.4708 21.2517 21.0642 21.75 21.5625L26.5 26.25L21.75 30.9375C21.25 31.4375 21 32.0317 21 32.72C21 33.4083 21.25 34.0017 21.75 34.5C22.25 34.9983 22.8442 35.2483 23.5325 35.25C24.2208 35.2517 24.8142 35.0017 25.3125 34.5L30 29.75ZM4.99999 52.5C4.29166 52.5 3.69833 52.26 3.21999 51.78C2.74166 51.3 2.50166 50.7067 2.49999 50C2.49833 49.2933 2.73833 48.7 3.21999 48.22C3.70166 47.74 4.29499 47.5 4.99999 47.5H55C55.7083 47.5 56.3025 47.74 56.7825 48.22C57.2625 48.7 57.5017 49.2933 57.5 50C57.4983 50.7067 57.2583 51.3008 56.78 51.7825C56.3017 52.2642 55.7083 52.5033 55 52.5H4.99999ZM9.99999 45C8.62499 45 7.44833 44.5108 6.46999 43.5325C5.49166 42.5542 5.00166 41.3767 4.99999 40V12.5C4.99999 11.125 5.48999 9.94833 6.46999 8.97C7.44999 7.99167 8.62666 7.50167 9.99999 7.5H50C51.375 7.5 52.5525 7.99 53.5325 8.97C54.5125 9.95 55.0017 11.1267 55 12.5V40C55 41.375 54.5108 42.5525 53.5325 43.5325C52.5542 44.5125 51.3767 45.0017 50 45H9.99999Z" fill="black"/>
</svg>
