<svg width="60" height="60" viewBox="0 0 60 60" fill="none" xmlns="http://www.w3.org/2000/svg">
<path d="M15 55C13.625 55 12.4483 54.5108 11.47 53.5325C10.4917 52.5542 10.0017 51.3767 10 50V10C10 8.625 10.49 7.44833 11.47 6.47C12.45 5.49167 13.6267 5.00167 15 5H35L50 20V27.5C49.0417 27.7083 48.1458 28.0417 47.3125 28.5C46.4792 28.9583 45.7083 29.5417 45 30.25L30 45.1875V55H15ZM35 55V47.3125L48.8125 33.5625C49.1875 33.1875 49.6042 32.9167 50.0625 32.75C50.5208 32.5833 50.9792 32.5 51.4375 32.5C51.9375 32.5 52.4167 32.5942 52.875 32.7825C53.3333 32.9708 53.75 33.2517 54.125 33.625L56.4375 35.9375C56.7708 36.3125 57.0317 36.7292 57.22 37.1875C57.4083 37.6458 57.5017 38.1042 57.5 38.5625C57.4983 39.0208 57.415 39.49 57.25 39.97C57.085 40.45 56.8142 40.8767 56.4375 41.25L42.6875 55H35ZM51.4375 41L53.75 38.5625L51.4375 36.25L49.0625 38.625L51.4375 41ZM32.5 22.5H45L32.5 10V22.5Z" fill="black"/>
</svg>
